<svg height="92px" width="92px" version="1.1" id="Layer_1" xmlns="http://www.w3.org/2000/svg" xmlns:xlink="http://www.w3.org/1999/xlink" viewBox="0 0 480 480" xml:space="preserve" fill="#000000"><g id="SVGRepo_bgCarrier" stroke-width="0"></g><g id="SVGRepo_tracerCarrier" stroke-linecap="round" stroke-linejoin="round"></g><g id="SVGRepo_iconCarrier"> <path style="fill:#F9FDFE;" d="M472,24.632v336c0,8.8-7.2,16-16,16H24c-8.8,0-16-7.2-16-16v-336c0-8.8,7.2-16,16-16h432 C464.8,8.632,472,15.832,472,24.632z"></path> <path style="fill:#E7EDEF;" d="M48,24.632h424c0-8.8-7.2-16-16-16H24c-8.8,0-16,7.2-16,16v336c0,8.8,7.2,16,16,16h8v-336 C32,31.832,39.2,24.632,48,24.632z"></path> <path style="fill:#0D1B34;" d="M456,384.632H24c-13.2,0-24-10.8-24-24v-336c0-13.2,10.8-24,24-24h432c13.2,0,24,10.8,24,24v336 C480,373.832,469.2,384.632,456,384.632z M24,16.632c-4.4,0-8,3.6-8,8v336c0,4.4,3.6,8,8,8h432c4.4,0,8-3.6,8-8v-336 c0-4.4-3.6-8-8-8H24z"></path> <polygon style="fill:#FCB23C;" points="440,351.332 440,471.332 392,439.332 344,471.332 344,351.332 392,351.332 "></polygon> <polygon style="fill:#d4af37;" points="368,352.632 344,352.632 344,471.332 368,455.332 "></polygon> <polygon style="fill:#d4af37;" points="416,439.332 404,447.332 440,471.332 440,455.332 "></polygon> <path style="fill:#0D1B34;" d="M440,479.332c-1.6,0-3.1-0.4-4.4-1.3l-43.6-29l-43.6,29c-2.5,1.6-5.6,1.8-8.2,0.4s-4.2-4.1-4.2-7.1 v-120c0-4.4,3.6-8,8-8h96c4.4,0,8,3.6,8,8v120c0,3-1.6,5.7-4.2,7.1C442.6,479.032,441.3,479.332,440,479.332z M392,431.332 c1.5,0,3.1,0.4,4.4,1.3l35.6,23.7v-97.1h-80v97l35.6-23.7C388.9,431.732,390.5,431.332,392,431.332z"></path> <path style="fill:#FDD18A;" d="M391.8,206.332c44,0,79.8,35.7,79.8,79.7c0,44.1-35.8,79.8-79.8,79.8c-44.1,0-79.8-35.7-79.8-79.8 C312,242.032,347.7,206.332,391.8,206.332z"></path> <path style="fill:#BE9D68;" d="M336.5,282.532c0-35.8,23.6-66.1,56.2-76.1c-0.3,0-0.6,0-0.9,0c-44.1,0-79.8,35.7-79.8,79.7 c0,44.1,35.7,79.8,79.8,79.8c8.2,0,16.1-1.2,23.6-3.5C371.7,361.732,336.5,326.332,336.5,282.532z"></path> <g> <path style="fill:#0D1B34;" d="M391.7,331.132c-4.4,0-8-3.6-8-8s3.6-8,8-8c16,0,29.1-13,29.1-29.1s-13-29.1-29.1-29.1 c-4.4,0-8-3.6-8-8s3.6-8,8-8c24.9,0,45.1,20.2,45.1,45.1S416.6,331.132,391.7,331.132z"></path> <path style="fill:#0D1B34;" d="M479.5,286.032c0-48.3-39.4-87.7-87.8-87.7s-87.7,39.3-87.7,87.7c0,45.8,35.2,83.4,80,87.4v27.2 c0,4.4,3.6,8,8,8s8-3.6,8-8v-27.3C444.5,369.232,479.5,331.632,479.5,286.032z M391.8,357.832c-39.6,0-71.8-32.2-71.8-71.8 c0-39.5,32.2-71.7,71.8-71.7s71.8,32.2,71.8,71.7C463.5,325.632,431.3,357.832,391.8,357.832z"></path> </g> <polygon style="fill:#FDD18A;" points="128.1,284.832 105.8,306.632 111,337.332 83.4,322.832 55.8,337.332 61,306.632 38.7,284.832 69.6,280.432 83.4,252.432 97.2,280.432 "></polygon> <g> <polygon style="fill:#FDDAA1;" points="122.5,287.632 124.9,288.032 128.1,284.832 120.6,283.832 "></polygon> <polygon style="fill:#FDDAA1;" points="83.4,322.832 84.7,323.532 86.3,313.932 64,292.132 94.9,287.632 98.4,280.532 97.2,280.432 83.4,252.432 69.6,280.432 38.7,284.832 61,306.632 55.8,337.332 "></polygon> <polygon style="fill:#FDDAA1;" points="108.6,330.132 103,333.132 111,337.332 109.9,330.832 "></polygon> </g> <path style="fill:#0D1B34;" d="M55.8,345.332c-1.7,0-3.3-0.5-4.7-1.5c-2.5-1.8-3.7-4.8-3.2-7.8l4.6-26.6l-19.4-18.8 c-2.2-2.1-3-5.3-2-8.2c0.9-2.9,3.4-5,6.5-5.4l26.7-3.9l11.9-24.2c1.3-2.7,4.1-4.5,7.2-4.5l0,0c3,0,5.8,1.7,7.2,4.5l12,24.2l26.7,3.9 c3,0.4,5.5,2.5,6.5,5.4c0.9,2.9,0.2,6.1-2,8.2l-19.3,18.8l4.6,26.6c0.5,3-0.7,6-3.2,7.8s-5.7,2-8.4,0.6l-24-12.5l-23.9,12.5 C58.3,345.032,57,345.332,55.8,345.332z M83.4,314.832c1.3,0,2.5,0.3,3.7,0.9l13.4,7l-2.5-14.8c-0.4-2.6,0.4-5.2,2.3-7.1l10.7-10.4 l-14.8-2.2c-2.6-0.4-4.9-2-6-4.4l-6.6-13.4l-6.6,13.4c-1.2,2.4-3.4,4-6,4.4l-14.8,2.2l10.7,10.4c1.9,1.8,2.7,4.5,2.3,7.1l-2.5,14.8 l13.2-7C80.8,315.132,82.1,314.832,83.4,314.832z M69.6,280.432L69.6,280.432L69.6,280.432z"></path> <polygon style="fill:#FDD18A;" points="256.1,284.832 233.8,306.632 239,337.332 211.4,322.832 183.8,337.332 189,306.632 166.7,284.832 197.6,280.432 211.4,252.432 225.2,280.432 "></polygon> <g> <path style="fill:#FDDAA1;" d="M239,337.332L239,337.332L239,337.332z"></path> <polygon style="fill:#FDDAA1;" points="254.2,286.732 256.1,284.832 253.1,284.432 "></polygon> <polygon style="fill:#FDDAA1;" points="221,318.832 198.6,297.132 229.5,292.632 234.8,281.832 225.2,280.432 211.4,252.432 197.6,280.432 166.7,284.832 189,306.632 183.8,337.332 211.4,322.832 219.5,327.132 "></polygon> </g> <g> <path style="fill:#0D1B34;" d="M183.8,345.332c-1.7,0-3.3-0.5-4.7-1.5c-2.5-1.8-3.7-4.8-3.2-7.8l4.6-26.6l-19.4-18.8 c-2.2-2.1-3-5.3-2-8.2c0.9-2.9,3.4-5,6.5-5.4l26.7-3.9l11.9-24.2c1.3-2.7,4.1-4.5,7.2-4.5l0,0c3,0,5.8,1.7,7.2,4.5l12,24.2 l26.7,3.9c3,0.4,5.5,2.5,6.5,5.4c0.9,2.9,0.2,6.1-2,8.2l-19.3,18.8l4.6,26.6c0.5,3-0.7,6-3.2,7.8s-5.7,2-8.4,0.6l-24-12.5 l-23.9,12.5C186.3,345.032,185,345.332,183.8,345.332z M211.4,314.832c1.3,0,2.5,0.3,3.7,0.9l13.4,7l-2.5-14.8 c-0.4-2.6,0.4-5.2,2.3-7.1l10.7-10.4l-14.8-2.2c-2.6-0.4-4.9-2-6-4.4l-6.6-13.4l-6.6,13.4c-1.2,2.4-3.4,4-6,4.4l-14.8,2.2 l10.7,10.4c1.9,1.8,2.7,4.5,2.3,7.1l-2.5,14.8l13.2-7C208.8,315.132,210.1,314.832,211.4,314.832z M197.6,280.432L197.6,280.432 L197.6,280.432z"></path> <path style="fill:#0D1B34;" d="M184,72.632H56c-4.4,0-8-3.6-8-8s3.6-8,8-8h128c4.4,0,8,3.6,8,8S188.4,72.632,184,72.632z"></path> <path style="fill:#0D1B34;" d="M424,120.632H296c-4.4,0-8-3.6-8-8s3.6-8,8-8h128c4.4,0,8,3.6,8,8 C432,117.032,428.4,120.632,424,120.632z"></path> <path style="fill:#0D1B34;" d="M424,72.632H216c-4.4,0-8-3.6-8-8s3.6-8,8-8h208c4.4,0,8,3.6,8,8S428.4,72.632,424,72.632z"></path> <path style="fill:#0D1B34;" d="M264,120.632H56c-4.4,0-8-3.6-8-8s3.6-8,8-8h208c4.4,0,8,3.6,8,8 C272,117.032,268.4,120.632,264,120.632z"></path> <path style="fill:#0D1B34;" d="M184,168.632H56c-4.4,0-8-3.6-8-8s3.6-8,8-8h128c4.4,0,8,3.6,8,8S188.4,168.632,184,168.632z"></path> <path style="fill:#0D1B34;" d="M424,168.632H216c-4.4,0-8-3.6-8-8s3.6-8,8-8h208c4.4,0,8,3.6,8,8S428.4,168.632,424,168.632z"></path> <path style="fill:#0D1B34;" d="M264,216.632H56c-4.4,0-8-3.6-8-8s3.6-8,8-8h208c4.4,0,8,3.6,8,8S268.4,216.632,264,216.632z"></path> </g> </g></svg>